<?xml version="1.0" encoding="UTF-8" standalone="no"?>
<!-- Created with Inkscape (http://www.inkscape.org/) -->

<svg
   xmlns:dc="http://purl.org/dc/elements/1.1/"
   xmlns:cc="http://creativecommons.org/ns#"
   xmlns:rdf="http://www.w3.org/1999/02/22-rdf-syntax-ns#"
   xmlns:svg="http://www.w3.org/2000/svg"
   xmlns="http://www.w3.org/2000/svg"
   xmlns:sodipodi="http://sodipodi.sourceforge.net/DTD/sodipodi-0.dtd"
   xmlns:inkscape="http://www.inkscape.org/namespaces/inkscape"
   width="490"
   height="565"
   id="svg4726"
   sodipodi:version="0.32"
   inkscape:version="0.48.2 r9819"
   version="1.0"
   sodipodi:docname="Olympique lyonnais.svg"
   inkscape:output_extension="org.inkscape.output.svg.inkscape">
  <defs
     id="defs4728">
    <clipPath
       clipPathUnits="userSpaceOnUse"
       id="clipPath1709">
      <path
         d="m 47.244,805.748 90.14,0 0,92.265 -90.14,0 0,-92.265 z"
         id="path1711"
         inkscape:connector-curvature="0" />
    </clipPath>
    <inkscape:perspective
       sodipodi:type="inkscape:persp3d"
       inkscape:vp_x="0 : 526.18109 : 1"
       inkscape:vp_y="0 : 1000 : 0"
       inkscape:vp_z="744.09448 : 526.18109 : 1"
       inkscape:persp3d-origin="372.04724 : 350.78739 : 1"
       id="perspective4734" />
  </defs>
  <sodipodi:namedview
     id="base"
     pagecolor="#ffffff"
     bordercolor="#666666"
     borderopacity="1.0"
     inkscape:pageopacity="0.0"
     inkscape:pageshadow="2"
     inkscape:zoom="0.79314854"
     inkscape:cx="49"
     inkscape:cy="267.66561"
     inkscape:document-units="px"
     inkscape:current-layer="layer1"
     showgrid="false"
     inkscape:window-width="1366"
     inkscape:window-height="706"
     inkscape:window-x="-8"
     inkscape:window-y="-8"
     inkscape:window-maximized="1" />
  <metadata
     id="metadata4731">
    <rdf:RDF>
      <cc:Work
         rdf:about="">
        <dc:format>image/svg+xml</dc:format>
        <dc:type
           rdf:resource="http://purl.org/dc/dcmitype/StillImage" />
      </cc:Work>
    </rdf:RDF>
  </metadata>
  <g
     inkscape:label="Calque 1"
     inkscape:groupmode="layer"
     id="layer1"
     transform="translate(-208.56286,133.11775)">
    <g
       transform="matrix(6.2574234,0,0,-6.2574234,-85.510982,5487.721)"
       id="g1705">
      <g
         id="g1707"
         clip-path="url(#clipPath1709)">
        <g
           id="g1713"
           transform="translate(124.9644,898.0137)">
          <path
             d="m 0,0 -77.713,0 -0.007,-66.263 c 0,-4.073 1.094,-7.224 3.251,-9.366 2.141,-2.125 5.277,-3.129 9.317,-3.243 11.645,-0.325 18.983,-2.906 24.737,-9.368 l 1.559,-1.9 1.558,1.9 c 5.754,6.462 13.092,9.043 24.737,9.368 4.041,0.114 7.177,1.118 9.317,3.243 2.158,2.142 3.252,5.293 3.252,9.366 L 0,0 z"
             style="fill:#d2b453;fill-opacity:1;fill-rule:nonzero;stroke:none"
             id="path1715"
             inkscape:connector-curvature="0" />
        </g>
        <g
           id="g1717"
           transform="translate(112.4038,821.1988)">
          <path
             d="m 0,0 c -12.162,-0.391 -20.495,-3.147 -26.296,-9.819 -5.8,6.672 -14.134,9.428 -26.295,9.819 -6.985,0.22 -10.553,3.461 -10.553,10.552 l 0.005,36.024 73.687,0 0.004,-36.024 C 10.552,3.461 6.984,0.22 0,0"
             style="fill:#274288;fill-opacity:1;fill-rule:nonzero;stroke:none"
             id="path1719"
             inkscape:connector-curvature="0" />
        </g>
        <g
           id="g1721"
           transform="translate(49.2682,895.9974)">
          <path
             d="m 0,0 73.68,0 0.003,-26.206 -73.686,0 L 0,0 z"
             style="fill:#d90022;fill-opacity:1;fill-rule:nonzero;stroke:none"
             id="path1723"
             inkscape:connector-curvature="0" />
        </g>
        <g
           id="g1725"
           transform="translate(94.8415,862.6075)">
          <path
             d="m 0,0 0,-36.153 23.052,0 0,11.498 -10.304,0 L 12.748,0 0,0 z"
             style="fill:#d2b453;fill-opacity:1;fill-rule:nonzero;stroke:none"
             id="path1727"
             inkscape:connector-curvature="0" />
        </g>
        <g
           id="g1729"
           transform="translate(106.0207,861.0392)">
          <path
             d="m 0,0 0,-24.654 10.305,0 0,-8.362 -19.916,0 L -9.611,0 0,0 z"
             style="fill:#ffffff;fill-opacity:1;fill-rule:nonzero;stroke:none"
             id="path1731"
             inkscape:connector-curvature="0" />
        </g>
        <g
           id="g1733"
           transform="translate(52.8918,844.5313)">
          <path
             d="m 0,0 c 0,-10.452 8.503,-18.955 18.954,-18.955 10.453,0 18.956,8.503 18.956,18.955 0,10.452 -8.503,18.954 -18.956,18.954 C 8.503,18.954 0,10.452 0,0"
             style="fill:#d2b453;fill-opacity:1;fill-rule:nonzero;stroke:none"
             id="path1735"
             inkscape:connector-curvature="0" />
        </g>
        <g
           id="g1737"
           transform="translate(54.5541,844.5313)">
          <path
             d="m 0,0 c 0,9.535 7.757,17.292 17.292,17.292 9.536,0 17.293,-7.757 17.293,-17.292 0,-9.535 -7.757,-17.293 -17.293,-17.293 C 7.757,-17.293 0,-9.535 0,0"
             style="fill:#ffffff;fill-opacity:1;fill-rule:nonzero;stroke:none"
             id="path1739"
             inkscape:connector-curvature="0" />
        </g>
        <g
           id="g1741"
           transform="translate(81.9088,855.2794)">
          <path
             d="m 0,0 c -1.065,-0.442 -1.578,0.342 -1.726,0.881 -0.633,-0.633 -0.283,-1.414 -0.032,-1.634 -0.207,-0.107 -1.072,-0.601 -1.111,-1.66 0.874,-0.248 1.697,0.154 1.95,0.334 0.055,-0.286 0.446,-0.77 1.281,-0.609 -0.431,0.458 -0.633,1.279 -0.019,1.622 l 0.161,0.083 c 0.901,0.388 1.435,-0.287 1.579,-0.61 0.297,-0.665 0.04,-1.461 -0.574,-1.775 l -4.03,-2.082 c -2.067,-1.043 -1.863,-2.986 -1.416,-3.875 l 1.852,-3.669 c 0.346,-0.731 -0.172,-1.235 -0.542,-1.404 -0.592,-0.271 -1.305,-0.037 -1.585,0.511 l -2.49,4.867 c 0.138,-0.111 0.512,-0.247 0.842,-0.098 -1.093,1.772 0.844,1.703 0.209,3.306 0.142,-0.189 0.602,-0.305 0.826,-0.224 -0.976,2.192 1.232,2.171 0.11,3.905 0.119,-0.098 0.588,-0.069 0.786,0.098 -1.367,1.362 -0.136,2.283 -1.801,2.84 0.242,-0.011 0.548,0.243 0.609,0.532 -1.142,-0.079 -1.685,1.393 -3.322,1.186 -0.67,-0.086 -1.26,-0.269 -1.86,-0.458 -0.343,-0.109 -0.603,0.017 -0.919,-0.141 -0.12,-0.12 -0.254,-0.497 -0.254,-0.497 -0.426,-0.091 -1.124,-0.288 -1.316,-0.494 -0.058,-0.216 0,-0.422 0.083,-0.587 0,0 0.1,-0.035 0.124,-0.157 0.119,-0.6 0.314,-1.124 0.66,-1.436 l 1.012,0.252 c 0,0 0.803,-0.445 1.061,-1.112 0.15,-0.388 0.086,-0.631 -0.388,-0.638 -0.406,-0.007 -1.202,0.167 -1.518,0.217 -0.134,-0.342 -0.196,-0.999 0.102,-1.224 0.163,-0.121 1.014,-0.078 1.274,-0.059 -0.065,-0.928 -0.734,-1.494 -1.88,-1.121 -3.285,1.066 -5.392,1.374 -6.588,4.044 0.044,0.186 0.273,2.013 -1.044,2.479 0.164,-0.513 0.302,-1.112 0.158,-1.61 -0.217,0.849 -0.854,1.408 -1.854,1.308 0.567,-0.402 0.919,-0.906 0.924,-1.421 -0.422,0.31 -1.194,0.411 -1.766,0.167 2.721,-1.23 1.795,-3.326 0.593,-3.518 0.496,-0.411 1.298,-0.299 1.783,0 l 1.629,-2.085 c -0.303,-0.064 -0.604,-0.305 -0.716,-0.509 0.329,0.019 0.853,-0.035 1.071,-0.249 0.123,-0.33 0.285,-0.919 0.067,-1.771 0.638,0.332 0.896,0.794 0.986,1.208 l 2.398,-1.403 c -1.21,-0.637 -4.827,-2.457 -6.675,-1.606 -0.281,0.13 -2.1,0.911 -3.102,-0.108 0.679,0.023 1.338,-0.255 1.457,-0.527 -0.7,-0.077 -1.546,-0.383 -1.76,-1.165 0.264,0.17 1.148,0.233 1.604,0.154 -0.398,-0.315 -0.715,-0.882 -0.669,-1.612 0,0 1.461,1.351 2.661,1.004 0.559,-0.162 0.287,-1.14 0.177,-1.375 0.905,0.131 1.135,1.027 1.138,1.1 l 2.791,0.116 c 0.187,-0.091 0.267,-0.489 0.094,-0.807 0.478,0.133 0.69,0.416 0.81,0.867 0.586,-0.071 0.911,-0.47 0.979,-1.066 0.406,0.42 0.351,1.069 0.184,1.401 l 3.04,0.734 1.056,-1.165 c 0,0 -5.44,-3.4 -7.292,-3.311 0.287,-0.656 1.62,-0.582 2.235,-0.351 -0.188,-0.341 -0.054,-0.835 -0.054,-0.835 0,0 0.411,-0.027 0.835,0.512 0,0 0.816,-1.629 0.684,-1.916 -0.381,-0.839 -3.043,-1.019 -3.043,-1.019 -0.484,0.385 -1.815,0.834 -2.557,0.271 0.569,-0.025 1.027,-0.458 1.1,-0.728 -0.312,-0.002 -1.4,-0.132 -1.647,-1.143 0.611,0.279 1.349,0.279 1.575,0.158 -0.346,-0.247 -0.773,-0.821 -0.662,-1.533 0.785,0.829 1.875,1.203 2.601,1.041 0.424,-0.094 0.447,-0.73 0.324,-1.184 0.605,0.159 0.952,0.783 1.081,1.112 l 2.91,0.907 c 0,0 0.094,-0.259 0.089,-0.674 0.363,0.042 0.722,0.49 0.749,0.812 0,0 0.546,-0.829 1.405,-0.684 -0.499,0.841 -1.185,3.008 -1.182,3.564 0.004,0.702 2.124,1.12 2.48,1.226 l 1.027,-1.499 c 0,0 -1.044,-0.511 -1.224,-1.18 0.916,0.404 1.653,0.364 1.887,0.306 0.2,-0.212 0.4,-0.588 0.484,-1.033 0.199,0.127 0.457,0.504 0.484,0.889 2.327,-0.738 2.33,-1.095 1.763,-3.443 -1.056,0.104 -2.741,0.157 -3.106,-0.922 0.639,0.176 1.373,0.062 1.77,-0.091 -0.495,-0.168 -1.383,-0.684 -1.17,-1.701 0,0 0.859,0.962 1.848,0.791 -0.529,-0.326 -1.191,-1.009 -0.61,-1.863 0.525,1.082 1.753,1.19 2.266,1.087 l 0.729,1.577 c 0.296,0.642 1.111,0.561 1.202,-0.255 0.77,0.948 -0.096,1.984 -0.343,2.106 l 0.665,1.431 c 0.214,-0.021 0.767,-0.161 1.091,0.222 -0.339,0.104 -0.638,0.325 -0.77,0.56 0.339,-0.023 1.243,-0.162 1.671,0.428 -1.452,0.29 -4.834,2.354 -5.089,3.624 0.663,-0.537 1.623,-0.692 2.454,-0.32 0.537,0.24 0.943,0.658 1.154,1.183 0.601,1.241 2.188,0.233 2.435,2.531 -0.634,-0.9 -2.034,-0.302 -2.31,-1.419 -0.563,2.474 3.009,0.858 3.034,4.595 -0.881,-1.528 -4.033,-0.983 -3.774,-2.916 -1.349,3.992 4.699,1.406 4.368,6.587 -1.18,-2.341 -5.87,-1.721 -5.427,-4.489 l -0.256,0.509 c -0.355,0.73 -0.273,1.746 0.828,2.342 l 4.138,2.133 c 1.127,0.578 1.603,1.967 1.077,3.209 C 2.772,-0.39 1.6,0.752 0,0 m -10.927,1.026 c 0,10e-4 -0.099,0.321 0.304,0.4 0.45,0.089 0.879,-0.18 1.246,-0.306 -0.231,-0.28 -1.118,-0.446 -1.55,-0.094 m 0.018,-2.415 c -1.78,-0.801 -3.266,-0.752 -4.63,0.01 0.296,-0.964 2.881,-2.226 4.63,-0.01"
             style="fill:#d2b453;fill-opacity:1;fill-rule:nonzero;stroke:none"
             id="path1743"
             inkscape:connector-curvature="0" />
        </g>
        <g
           id="g1745"
           transform="translate(74.6615,873.4296)">
          <path
             d="m 0,0 c -0.677,-0.656 -1.503,-1.023 -2.599,-1.023 -1.097,0 -1.937,0.367 -2.614,1.023 -0.974,0.944 -0.947,2.111 -0.947,3.724 0,1.613 -0.027,2.779 0.947,3.723 0.677,0.656 1.517,1.023 2.614,1.023 C -1.503,8.47 -0.677,8.103 0,7.447 0.975,6.503 0.961,5.337 0.961,3.724 0.961,2.111 0.975,0.944 0,0 m -1.394,6.346 c -0.271,0.302 -0.691,0.498 -1.205,0.498 -0.515,0 -0.948,-0.196 -1.219,-0.498 -0.366,-0.394 -0.461,-0.826 -0.461,-2.622 0,-1.797 0.095,-2.229 0.461,-2.623 0.271,-0.301 0.704,-0.498 1.219,-0.498 0.514,0 0.934,0.197 1.205,0.498 0.365,0.394 0.473,0.826 0.473,2.623 0,1.796 -0.108,2.228 -0.473,2.622"
             style="fill:#ffffff;fill-opacity:1;fill-rule:nonzero;stroke:none"
             id="path1747"
             inkscape:connector-curvature="0" />
        </g>
        <g
           id="g1749"
           transform="translate(59.8219,874.1115)">
          <path
             d="m 0,0 -4.034,0 0,7.609 -0.1,0.101 -1.682,0 -0.1,-0.101 0,-9.135 0.1,-0.1 5.814,0 0.101,0.1 0,1.427 L 0,0 z"
             style="fill:#ffffff;fill-opacity:1;fill-rule:nonzero;stroke:none"
             id="path1751"
             inkscape:connector-curvature="0" />
        </g>
        <g
           id="g1753"
           transform="translate(67.0645,881.821)">
          <path
             d="M 0,0 -1.893,0 -3.667,-3.763 -5.468,0 l -1.943,0 -0.066,-0.066 2.862,-5.441 0,-3.728 0.101,-0.101 1.668,0 0.1,0.101 0,3.728 2.845,5.408 L 0,0 z"
             style="fill:#ffffff;fill-opacity:1;fill-rule:nonzero;stroke:none"
             id="path1755"
             inkscape:connector-curvature="0" />
        </g>
        <g
           id="g1757"
           transform="translate(83.9441,881.821)">
          <path
             d="m 0,0 -0.1,-0.1 0,-5.617 -3.818,5.717 -1.579,0 -0.1,-0.1 0,-9.135 0.1,-0.101 1.681,0 0.101,0.101 0,5.629 3.818,-5.73 1.578,0 0.101,0.101 0,9.135 L 1.681,0 0,0 z"
             style="fill:#ffffff;fill-opacity:1;fill-rule:nonzero;stroke:none"
             id="path1759"
             inkscape:connector-curvature="0" />
        </g>
        <g
           id="g1761"
           transform="translate(102.9185,881.7206)">
          <path
             d="m 0,0 -0.1,0.1 -1.352,0 -0.098,-0.097 -3.442,-9.165 0.074,-0.073 1.861,0 0.583,1.652 3.425,0 0.569,-1.652 1.863,0 0.073,0.072 L 0,0 z m -1.946,-6.049 1.219,3.396 1.177,-3.396 -2.396,0 z"
             style="fill:#ffffff;fill-opacity:1;fill-rule:nonzero;stroke:none"
             id="path1763"
             inkscape:connector-curvature="0" />
        </g>
        <g
           id="g1765"
           transform="translate(108.1974,881.821)">
          <path
             d="m 0,0 -0.101,-0.1 0,-9.135 0.101,-0.101 1.681,0 0.1,0.101 0,9.135 L 1.681,0 0,0 z"
             style="fill:#ffffff;fill-opacity:1;fill-rule:nonzero;stroke:none"
             id="path1767"
             inkscape:connector-curvature="0" />
        </g>
        <g
           id="g1769"
           transform="translate(94.3717,881.821)">
          <path
             d="m 0,0 -0.101,-0.1 0,-5.617 -3.818,5.717 -1.579,0 -0.1,-0.1 0,-9.135 0.1,-0.101 1.681,0 0.101,0.101 0,5.629 3.818,-5.73 1.579,0 0.1,0.101 0,9.135 L 1.681,0 0,0 z"
             style="fill:#ffffff;fill-opacity:1;fill-rule:nonzero;stroke:none"
             id="path1771"
             inkscape:connector-curvature="0" />
        </g>
        <g
           id="g1773"
           transform="translate(118.4688,877.2188)">
          <path
             d="m 0,0 c -0.407,0.367 -0.961,0.603 -1.841,0.721 l -1.138,0.158 c -0.392,0.052 -0.704,0.196 -0.893,0.367 -0.203,0.183 -0.285,0.433 -0.285,0.669 0,0.642 0.487,1.179 1.49,1.179 0.612,0 1.311,-0.077 1.905,-0.585 l 0.139,0.008 1.053,1.008 0,0.128 c -0.811,0.727 -1.754,1.028 -3.043,1.028 -2.086,0 -3.358,-1.167 -3.358,-2.832 0,-0.787 0.23,-1.39 0.69,-1.836 0.434,-0.406 1.043,-0.655 1.869,-0.773 l 1.165,-0.158 c 0.446,-0.066 0.663,-0.157 0.853,-0.327 0.202,-0.184 0.297,-0.46 0.297,-0.787 0,-0.747 -0.596,-1.154 -1.706,-1.154 -0.86,0 -1.656,0.186 -2.257,0.726 l -0.142,-0.007 -1.074,-1.041 0,-0.14 c 0.932,-0.876 2.021,-1.164 3.446,-1.164 2.017,0 3.575,1.023 3.575,2.832 C 0.745,-1.154 0.514,-0.472 0,0"
             style="fill:#ffffff;fill-opacity:1;fill-rule:nonzero;stroke:none"
             id="path1775"
             inkscape:connector-curvature="0" />
        </g>
        <g
           id="g1777"
           transform="translate(59.2391,884.7167)">
          <path
             d="m 0,0 c -0.644,-0.644 -1.43,-1.005 -2.474,-1.005 -1.044,0 -1.843,0.361 -2.487,1.005 -0.929,0.928 -0.903,2.075 -0.903,3.659 0,1.586 -0.026,2.733 0.903,3.661 0.644,0.644 1.443,1.005 2.487,1.005 C -1.43,8.325 -0.644,7.964 0,7.32 0.928,6.392 0.915,5.245 0.915,3.659 0.915,2.075 0.928,0.928 0,0 m -1.327,6.237 c -0.258,0.297 -0.658,0.49 -1.147,0.49 -0.49,0 -0.902,-0.193 -1.16,-0.49 -0.348,-0.387 -0.438,-0.812 -0.438,-2.578 0,-1.764 0.09,-2.19 0.438,-2.576 0.258,-0.297 0.67,-0.49 1.16,-0.49 0.489,0 0.889,0.193 1.147,0.49 0.348,0.386 0.451,0.812 0.451,2.576 0,1.766 -0.103,2.191 -0.451,2.578"
             style="fill:#ffffff;fill-opacity:1;fill-rule:nonzero;stroke:none"
             id="path1779"
             inkscape:connector-curvature="0" />
        </g>
        <g
           id="g1781"
           transform="translate(102.7603,884.4144)">
          <path
             d="m 0,0 -0.715,0.715 c 0.58,0.851 0.567,1.868 0.567,3.247 0,1.585 0.013,2.732 -0.915,3.66 -0.644,0.644 -1.431,1.005 -2.475,1.005 -1.043,0 -1.842,-0.361 -2.486,-1.005 -0.928,-0.928 -0.902,-2.075 -0.902,-3.66 0,-1.585 -0.026,-2.732 0.902,-3.66 0.644,-0.644 1.443,-1.004 2.486,-1.004 0.722,0 1.341,0.167 1.856,0.502 l 0.741,-0.741 0.142,0 L 0,-0.142 0,0 z M -2.107,2.107 -2.79,2.79 -3.744,1.849 -2.945,1.062 C -3.112,0.947 -3.318,0.895 -3.538,0.895 c -0.489,0 -0.901,0.193 -1.159,0.49 -0.348,0.387 -0.439,0.812 -0.439,2.577 0,1.765 0.091,2.19 0.439,2.577 0.258,0.297 0.67,0.491 1.159,0.491 0.49,0 0.89,-0.194 1.147,-0.491 0.348,-0.387 0.452,-0.812 0.452,-2.577 0,-0.928 -0.026,-1.456 -0.168,-1.855"
             style="fill:#ffffff;fill-opacity:1;fill-rule:nonzero;stroke:none"
             id="path1783"
             inkscape:connector-curvature="0" />
        </g>
        <g
           id="g1785"
           transform="translate(67.2385,885.387)">
          <path
             d="m 0,0 -3.662,0 0,7.477 -0.1,0.1 -1.59,0 -0.101,-0.1 0,-8.974 0.101,-0.101 5.352,0 0.1,0.101 0,1.397 L 0,0 z"
             style="fill:#ffffff;fill-opacity:1;fill-rule:nonzero;stroke:none"
             id="path1787"
             inkscape:connector-curvature="0" />
        </g>
        <g
           id="g1789"
           transform="translate(73.3894,892.964)">
          <path
             d="M 0,0 -1.794,0 -3.482,-3.698 -5.196,0 l -1.796,0 -0.099,-0.1 2.707,-5.312 0,-3.662 0.1,-0.101 1.578,0 0.1,0.101 0,3.662 L 0.101,-0.1 0,0 z"
             style="fill:#ffffff;fill-opacity:1;fill-rule:nonzero;stroke:none"
             id="path1791"
             inkscape:connector-curvature="0" />
        </g>
        <g
           id="g1793"
           transform="translate(81.1748,892.964)">
          <path
             d="M 0,0 -2.384,-4.961 -4.781,0 l -1.665,0 -0.1,-0.1 0,-8.975 0.1,-0.1 1.59,0 0.101,0.1 0,5.248 1.765,-3.479 1.212,0 1.752,3.479 0,-5.247 0.101,-0.101 1.59,0 0.101,0.1 0,8.975 L 1.666,0 0,0 z"
             style="fill:#ffffff;fill-opacity:1;fill-rule:nonzero;stroke:none"
             id="path1795"
             inkscape:connector-curvature="0" />
        </g>
        <g
           id="g1797"
           transform="translate(94.1819,892.964)">
          <path
             d="m 0,0 -1.591,0 -0.1,-0.1 0,-8.975 0.1,-0.1 1.591,0 0.1,0.101 0,8.974 L 0,0 z"
             style="fill:#ffffff;fill-opacity:1;fill-rule:nonzero;stroke:none"
             id="path1799"
             inkscape:connector-curvature="0" />
        </g>
        <g
           id="g1801"
           transform="translate(109.2621,892.964)">
          <path
             d="m 0,0 -0.1,-0.1 0,-5.866 c 0,-1.057 -0.632,-1.688 -1.598,-1.688 -0.967,0 -1.585,0.631 -1.585,1.688 l 0,5.866 -0.101,0.1 -1.59,0 -0.1,-0.1 0,-5.931 c 0,-1.946 1.495,-3.221 3.376,-3.221 1.882,0 3.377,1.275 3.377,3.221 l 0,5.931 L 1.578,0 0,0 z"
             style="fill:#ffffff;fill-opacity:1;fill-rule:nonzero;stroke:none"
             id="path1803"
             inkscape:connector-curvature="0" />
        </g>
        <g
           id="g1805"
           transform="translate(114.3693,885.387)">
          <path
             d="m 0,0 0,2.229 3.521,0 0.1,0.101 0,1.397 -0.1,0.1 -3.521,0 0,2.152 4.152,0 0.101,0.101 0,1.397 -0.101,0.1 -5.842,0 -0.101,-0.1 0,-8.974 0.101,-0.101 5.842,0 0.101,0.101 0,1.397 L 4.152,0 0,0 z"
             style="fill:#ffffff;fill-opacity:1;fill-rule:nonzero;stroke:none"
             id="path1807"
             inkscape:connector-curvature="0" />
        </g>
        <g
           id="g1809"
           transform="translate(88.2151,892.964)">
          <path
             d="m 0,0 -3.457,0 -0.1,-0.1 0,-8.974 0.1,-0.101 1.591,0 0.1,0.101 0,3.032 1.766,0 c 1.894,0 3.028,1.462 3.028,3.022 C 3.028,-1.461 1.894,0 0,0 m -0.091,-4.431 -1.675,0 0,2.833 1.675,0 c 0.812,0 1.328,-0.675 1.328,-1.422 0,-0.748 -0.516,-1.411 -1.328,-1.411"
             style="fill:#ffffff;fill-opacity:1;fill-rule:nonzero;stroke:none"
             id="path1811"
             inkscape:connector-curvature="0" />
        </g>
      </g>
    </g>
  </g>
</svg>
